<svg width="487" height="315" viewBox="0 0 487 315" fill="none" xmlns="http://www.w3.org/2000/svg">
<path d="M15.7865 1.89008C-4.99858 10.9576 -5.25206 33.5211 15.4063 42.3777C19.9689 44.2756 26.179 44.381 242.901 44.381C457.089 44.381 465.961 44.2756 470.777 42.3777C491.562 34.3646 491.815 10.9576 471.157 2.10095C466.595 0.203094 460.384 0.0976577 243.028 0.0976577C42.0213 0.203094 19.2084 0.308531 15.7865 1.89008Z" fill="black"/>
<path d="M15.7865 136.849C-4.99858 145.917 -5.25206 168.48 15.4063 177.337C19.9689 179.234 24.7849 179.34 161.789 179.34C297.019 179.34 303.736 179.234 308.552 177.337C329.337 169.323 329.59 145.917 308.932 137.06C304.37 135.162 299.554 135.057 161.916 135.057C34.7972 135.162 19.2084 135.267 15.7865 136.849Z" fill="black"/>
<path d="M15.7865 271.702C-4.99858 280.981 -5.25206 303.439 15.533 312.296C20.0956 314.299 23.2641 314.299 96.0118 314.088L171.801 313.772L176.491 311.136C179.152 309.66 182.828 306.602 184.729 304.388C187.77 300.697 188.151 299.221 188.151 292.157C188.151 285.093 187.77 283.617 184.729 279.926C182.828 277.712 179.152 274.655 176.491 273.179L171.801 270.543L95.7584 270.332C28.2069 270.121 19.2084 270.226 15.7865 271.702Z" fill="black"/>
</svg>
