<svg width="201" height="155" viewBox="0 0 201 155" fill="none" xmlns="http://www.w3.org/2000/svg">
<mask id="mask0_12_58" style="mask-type:luminance" maskUnits="userSpaceOnUse" x="0" y="0" width="155" height="155">
<path d="M0.723877 0.583374H154.75V154.583H0.723877V0.583374Z" fill="white"/>
</mask>
<g mask="url(#mask0_12_58)">
<path d="M138.901 62.2969L93.0259 16.4167C71.9061 -4.6979 37.677 -4.6979 16.5624 16.4167C-4.55221 37.5313 -4.55221 71.7656 16.5624 92.8802L37.1093 113.432C35.1353 103.625 35.4374 93.4427 38.0155 83.75L31.854 77.5886C19.1822 64.9219 19.1822 44.3802 31.854 31.7084C44.5207 19.0417 65.0624 19.0417 77.729 31.7084L123.609 77.5886C136.276 90.2552 136.276 110.797 123.609 123.469C110.937 136.135 90.4009 136.135 77.729 123.469L47.1509 92.8906C44.8436 109.146 49.9322 126.255 62.4374 138.76C83.552 159.875 117.786 159.875 138.901 138.76C160.016 117.646 160.016 83.4115 138.901 62.2969Z" fill="#5271FF"/>
</g>
<mask id="mask1_12_58" style="mask-type:luminance" maskUnits="userSpaceOnUse" x="92" y="0" width="109" height="114">
<path d="M92.1459 0.583374H200.615V113.615H92.1459V0.583374Z" fill="white"/>
</mask>
<g mask="url(#mask1_12_58)">
<path d="M184.781 16.4167C163.667 -4.6979 129.432 -4.6979 108.318 16.4167L92.3906 32.349C94.8281 34.1771 97.0833 36.2604 99.1458 38.4792C102.161 41.7292 104.682 45.3281 105.87 49.4479L123.609 31.7084C136.276 19.0417 156.818 19.0417 169.49 31.7084C182.156 44.3802 182.156 64.9219 169.49 77.5886L163.323 83.75C165.901 93.4427 166.203 103.625 164.229 113.432L184.781 92.8802C205.896 71.7656 205.896 37.5313 184.781 16.4167Z" fill="#5271FF"/>
</g>
<mask id="mask2_12_58" style="mask-type:luminance" maskUnits="userSpaceOnUse" x="46" y="46" width="102" height="109">
<path d="M46.4375 46.7917H147.297V154.583H46.4375V46.7917Z" fill="white"/>
</mask>
<g mask="url(#mask2_12_58)">
<path d="M128.469 139.188C130.214 134.979 133.76 131.641 136.828 128.396C140.12 124.917 143.344 121.323 145.271 116.88C147.62 111.464 147.438 106.047 146.432 100.646L123.609 123.469C110.938 136.135 90.401 136.135 77.7292 123.469C65.0625 110.797 65.0625 90.2553 77.7292 77.5886L93.026 62.2969L77.7292 47.0052L62.4375 62.2969C41.3229 83.4115 41.3229 117.646 62.4375 138.76C80.3177 156.641 107.609 159.375 128.37 146.974C127.563 144.401 127.417 141.734 128.469 139.188Z" fill="#5271FF"/>
</g>
</svg>
