<svg width="260" height="250" viewBox="0 0 260 250" fill="none" xmlns="http://www.w3.org/2000/svg">
<path d="M54.6488 226.559H116.042V219.1H54.6488V226.559Z" fill="#F1471D"/>
<path d="M58.8824 238.279H111.808V230.821H58.8824V238.279Z" fill="#51ADE5"/>
<mask id="mask0_8_267" style="mask-type:luminance" maskUnits="userSpaceOnUse" x="61" y="241" width="48" height="9">
<path d="M61.8452 241.501H108.645V250H61.8452V241.501Z" fill="white"/>
</mask>
<g mask="url(#mask0_8_267)">
<path d="M63.1923 250.014H107.406V243.063H63.1923V250.014Z" fill="#7F248D"/>
</g>
<path d="M232.45 26.2411L245.179 36.3528L231.742 53.9446L220.834 45.2834L232.45 26.2411Z" fill="#FBC108"/>
<path d="M157.676 105.09L168.967 114.076C166.707 125.971 162.114 137.006 155.68 146.645L137.212 131.944L157.676 105.09Z" fill="#E91348"/>
<path d="M54.3215 65.6654L20.777 38.5232C28.4116 29.4189 37.7776 21.9363 48.3502 16.6515L76.8777 39.7323L54.3215 65.6654Z" fill="#51ADE5"/>
<path d="M99.1063 101.565L119.738 74.1895L137.212 88.2561L119.37 117.876L99.1063 101.565Z" fill="#40B93C"/>
<path d="M196.564 75.255L210.249 86.1869L196.7 104.024L184.845 94.5557L196.564 75.255Z" fill="#51ADE5"/>
<path d="M64.726 116.81L32.4197 90.8579L54.484 65.6653L82.1693 87.9083L64.726 116.81Z" fill="#F1471D"/>
<path d="M119.115 117.876L137.212 131.913L116.522 158.365L101.223 146.497L119.115 117.876Z" fill="#7F248D"/>
<path d="M99.1056 101.407L78.8972 128.531L65.2335 117.396L82.7038 88.0413L99.1056 101.407Z" fill="#51ADE5"/>
<path d="M137.131 131.728L155.207 146.674C153.042 150.041 150.665 153.247 148.096 156.268C142.381 162.976 137.349 167.911 133.052 172.217L117.101 159.029L137.131 131.728Z" fill="#FBC108"/>
<mask id="mask1_8_267" style="mask-type:luminance" maskUnits="userSpaceOnUse" x="231" y="64" width="30" height="33">
<path d="M231.712 64.0822H260V96.3402H231.712V64.0822Z" fill="white"/>
</mask>
<g mask="url(#mask1_8_267)">
<path d="M259.979 75.9759L248.306 95.2691L233.228 83.1794L246.722 65.3422L259.979 75.9759Z" fill="#F1471D"/>
</g>
<path d="M76.6754 40.0929L48.298 16.9257C59.2014 11.4141 71.3932 8.27278 84.2631 8.13C86.955 8.10858 89.6131 8.21567 92.244 8.45127L99.1061 14.0557L76.6754 40.0929Z" fill="#FBC108"/>
<path d="M76.8771 39.6941L99.356 14.5204L118.159 29.3264L100.382 58.2067L76.8771 39.6941Z" fill="#E91348"/>
<path d="M153.385 48.6171L167.909 60.1678L150.268 89.1068L132.978 75.3635L153.385 48.6171Z" fill="#7F248D"/>
<path d="M187.619 102.958C187.88 105.777 188.02 108.63 188.02 111.525C188.02 117.336 187.486 123.028 186.464 128.531L175.318 119.46L187.619 102.958Z" fill="#FBC108"/>
<path d="M112.866 51.9041L130.731 21.9791L153.089 40.1386L132.431 67.7964L112.866 51.9041Z" fill="#40B93C"/>
<path d="M195.486 9.19281C198.705 13.8352 201.531 18.8219 203.898 24.1101L192.255 16.3824L195.486 9.19281Z" fill="#40B93C"/>
<mask id="mask2_8_267" style="mask-type:luminance" maskUnits="userSpaceOnUse" x="145" y="0" width="33" height="31">
<path d="M145.045 0H177.978V30.0319H145.045V0Z" fill="white"/>
</mask>
<g mask="url(#mask2_8_267)">
<path d="M146.48 10.7947L153 0.00695801C161.741 4.75326 169.623 11.0327 176.285 18.4811L168.648 28.5688L146.48 10.7947Z" fill="#F1471D"/>
</g>
<path d="M98.047 7.06177C101.279 7.36038 104.454 7.87618 107.574 8.58879L104.385 12.3894L98.047 7.06177Z" fill="#E91348"/>
<path d="M172.143 40.8748L179.975 30.5032C184.225 35.2647 187.995 40.4864 191.196 46.0894L187.092 52.8791L172.143 40.8748Z" fill="#51ADE5"/>
<path d="M117.101 5.70478L120.561 1.73419C128.298 3.43587 135.667 6.24364 142.505 9.98734L135.939 20.9135L117.101 5.70478Z" fill="#51ADE5"/>
<path d="M60.8814 213.772H55.6282C55.6282 206.192 54.9373 200.406 53.5898 195.659L66.2919 205.308L60.8814 213.772Z" fill="#51ADE5"/>
<path d="M76.8779 213.772H74.7609L75.5617 212.707L76.8779 213.772Z" fill="#FBC108"/>
<path d="M75.8188 212.666L74.9538 213.772H60.9998L66.3038 205.248L75.8188 212.666Z" fill="#E91348"/>
<path d="M75.7561 212.707L66.2925 204.945L83.7392 175.414L95.9306 185.42L75.7561 212.707Z" fill="#51ADE5"/>
<path d="M96.4138 186.069L116.042 201.436C115.531 204.982 115.273 209.037 115.273 213.772H77.2622L75.8188 212.645L96.4138 186.069Z" fill="#40B93C"/>
<path d="M84.2872 175.825L66.2712 205.248L53.4824 195.117C51.3131 187.144 47.4289 181.963 41.947 176.359L58.1861 155.169L84.2872 175.825Z" fill="#F1471D"/>
<path d="M47.2392 146.448L34.0002 167.955C30.5903 164.69 26.8067 160.963 22.6428 156.373C14.1519 147.014 7.65808 135.757 3.84058 123.291L9.62797 116.81L47.2392 146.448Z" fill="#FBC108"/>
<path d="M46.7108 146.645L57.8245 155.489L41.8159 176.479C39.3582 173.958 36.5815 171.347 33.4789 168.345L46.7108 146.645Z" fill="#51ADE5"/>
<mask id="mask3_8_267" style="mask-type:luminance" maskUnits="userSpaceOnUse" x="0" y="67" width="33" height="51">
<path d="M0 67.6664H32.3781V117.846H0V67.6664Z" fill="white"/>
</mask>
<g mask="url(#mask3_8_267)">
<path d="M9.63381 116.404L0.899438 109.403C0.323916 105.259 0.026001 101.031 0.026001 96.7182C0.026001 86.9316 1.56975 77.523 4.40673 68.7234L32.0317 90.8729L9.63381 116.404Z" fill="#FBC108"/>
</g>
<path d="M116.555 158.365L132.979 171.413C123.584 180.458 117.611 186.689 115.586 200.986L95.9309 185.368L116.555 158.365Z" fill="#7F248D"/>
<path d="M101.223 146.595L83.5003 175.414L57.8242 155.173L78.3177 128.531L101.223 146.595Z" fill="#40B93C"/>
<path d="M31.8957 91.2378L65.2341 117.452L47.2334 146.645L9.13342 116.684L31.8957 91.2378Z" fill="#7F248D"/>
<path d="M227.185 124.862L206.082 131.727L202.839 121.669L223.215 112.548L227.185 124.862Z" fill="#E91348"/>
<path d="M78.9939 127.972L58.3892 155.169L47.2388 146.237L65.0576 116.81L78.9939 127.972Z" fill="#E91348"/>
</svg>
